<svg height="464pt" viewBox="0 0 464 464" width="464pt" xmlns="http://www.w3.org/2000/svg"><path d="m272 404.320312c9.890625-5.761718 22.109375-5.761718 32 0v-124.320312l-32-8zm0 0" fill="#818085"/><path d="m240 288h96v-48h-96zm0 0" fill="#565659"/><path d="m268.320312 408h-196.320312v32h196.320312c-5.761718-9.890625-5.761718-22.109375 0-32zm0 0" fill="#818085"/><path d="m80 392-80-8v80l80-8zm0 0" fill="#544028"/><path d="m112 0v240h352v-240zm0 0" fill="#565659"/><path d="m256 32v176h176v-176zm0 0" fill="#97969b"/><path d="m152 64h64v32h-64zm0 0" fill="#ffda44"/><path d="m208 152c0 13.253906-10.746094 24-24 24s-24-10.746094-24-24 10.746094-24 24-24 24 10.746094 24 24zm0 0" fill="#d80027"/><path d="m408 120c0 35.347656-28.652344 64-64 64s-64-28.652344-64-64 28.652344-64 64-64 64 28.652344 64 64zm0 0" fill="#aacefa"/><path d="m272 396.320312c-4.863281 2.785157-8.894531 6.816407-11.679688 11.679688-8.074218 13.9375-4.558593 31.703125 8.210938 41.515625 12.773438 9.816406 30.84375 8.636719 42.230469-2.753906 11.390625-11.386719 12.570312-29.457031 2.753906-42.230469-9.8125-12.769531-27.578125-16.285156-41.515625-8.210938zm0 0" fill="#544028"/><path d="m240 240h96v16h-96zm0 0" fill="#2b2b2d"/><path d="m368 120c0 13.253906-10.746094 24-24 24s-24-10.746094-24-24 10.746094-24 24-24 24 10.746094 24 24zm0 0" fill="#c3ddfb"/></svg>