<svg height="464pt" viewBox="-96 0 464 464" width="464pt" xmlns="http://www.w3.org/2000/svg"><path d="m272 16v408h-272v-408c.0273438-8.824219 7.175781-15.9726562 16-16h240c8.824219.0273438 15.972656 7.175781 16 16zm0 0" fill="#dfd5c9"/><path d="m56 112h160c8.835938 0 16 7.164062 16 16v8c0 8.835938-7.164062 16-16 16h-160c-8.835938 0-16-7.164062-16-16v-8c0-8.835938 7.164062-16 16-16zm0 0" fill="#aacefa"/><path d="m136 264c-45.730469-.601562-91.375 4.152344-136 14.160156v145.839844c0 8.835938 7.164062 16 16 16h240c8.835938 0 16-7.164062 16-16v-145.839844c-44.625-10.007812-90.269531-14.761718-136-14.160156zm0 0" fill="#a0815c"/><path d="m56 40h160c8.835938 0 16 7.164062 16 16v8c0 8.835938-7.164062 16-16 16h-160c-8.835938 0-16-7.164062-16-16v-8c0-8.835938 7.164062-16 16-16zm0 0" fill="#d2e8f8"/><path d="m216 152h-160c-7.273438-.027344-13.613281-4.957031-15.433594-12-.359375 1.304688-.550781 2.648438-.566406 4v8c0 8.835938 7.164062 16 16 16h160c8.835938 0 16-7.164062 16-16v-8c-.015625-1.351562-.207031-2.695312-.566406-4-1.820313 7.042969-8.160156 11.972656-15.433594 12zm0 0" fill="#acabb1"/><path d="m216 80h-160c-7.273438-.027344-13.613281-4.957031-15.433594-12-.359375 1.304688-.550781 2.648438-.566406 4v8c0 8.835938 7.164062 16 16 16h160c8.835938 0 16-7.164062 16-16v-8c-.015625-1.351562-.207031-2.695312-.566406-4-1.820313 7.042969-8.160156 11.972656-15.433594 12zm0 0" fill="#acabb1"/><path d="m136 313.847656c-.535156 0-1.046875-.113281-1.601562-.078125-18.042969-.464843-33.105469 13.671875-33.789063 31.710938-.683594 18.035156 13.269531 33.269531 31.296875 34.171875 18.03125.902344 33.433594-12.863282 34.550781-30.882813 1.121094-18.015625-12.457031-33.582031-30.457031-34.921875zm0 0" fill="#d80027"/><path d="m32 464h16c4.417969 0 8-3.582031 8-8v-16h-32v16c0 4.417969 3.582031 8 8 8zm0 0" fill="#6c6b6f"/><path d="m248 456v-16h-32v16c0 4.417969 3.582031 8 8 8h16c4.417969 0 8-3.582031 8-8zm0 0" fill="#6c6b6f"/><path d="m24 392h32v24h-32zm0 0" fill="#aacefa"/><path d="m136 304c4.417969 0 8 3.582031 8 8v24c0 4.417969-3.582031 8-8 8s-8-3.582031-8-8v-24c0-4.417969 3.582031-8 8-8zm0 0" fill="#ffad41"/><g fill="#515053"><path d="m216 440h32v8h-32zm0 0"/><path d="m24 440h32v8h-32zm0 0"/></g></svg>