<svg height="464pt" viewBox="0 -72 464 464" width="464pt" xmlns="http://www.w3.org/2000/svg"><path d="m448 0h-96c-8.835938 0-16 7.164062-16 16v304h128v-304c0-8.835938-7.164062-16-16-16zm0 0" fill="#a0815c"/><path d="m16 48h272c8.835938 0 16 7.164062 16 16v160c0 8.835938-7.164062 16-16 16h-272c-8.835938 0-16-7.164062-16-16v-160c0-8.835938 7.164062-16 16-16zm0 0" fill="#818085"/><path d="m128 240h48v48h-48zm0 0" fill="#595765"/><path d="m80 288v32h144v-32zm0 0" fill="#595765"/><path d="m424 248c0 13.253906-10.746094 24-24 24s-24-10.746094-24-24 10.746094-24 24-24 24 10.746094 24 24zm0 0" fill="#ffda44"/><path d="m128 240h48v16h-48zm0 0" fill="#414042"/><path d="m24 72v128l240-128zm0 0" fill="#aacefa"/><path d="m264 72-240 128v16h256v-144zm0 0" fill="#95b4db"/><path d="m400 248c-4.417969 0-8-3.582031-8-8v-16c0-4.417969 3.582031-8 8-8s8 3.582031 8 8v16c0 4.417969-3.582031 8-8 8zm0 0" fill="#ff9811"/><g fill="#786145"><path d="m440 40h-80c-4.417969 0-8-3.582031-8-8s3.582031-8 8-8h80c4.417969 0 8 3.582031 8 8s-3.582031 8-8 8zm0 0"/><path d="m440 72h-80c-4.417969 0-8-3.582031-8-8s3.582031-8 8-8h80c4.417969 0 8 3.582031 8 8s-3.582031 8-8 8zm0 0"/></g></svg>