<svg height="464pt" viewBox="0 0 464.00039 464" width="464pt" xmlns="http://www.w3.org/2000/svg"><path d="m396.046875 67.949219c-78.261719-78.261719-200.914063-90.339844-292.941406-28.847657-92.027344 61.488282-127.800781 179.425782-85.445313 281.683594 42.355469 102.253906 151.046875 160.351563 259.601563 138.757813 108.554687-21.59375 186.738281-116.863281 186.738281-227.542969.078125-61.546875-24.375-120.585938-67.953125-164.050781zm-204.046875 164.050781c0-22.09375 17.910156-40 40-40s40 17.90625 40 40c0 22.089844-17.910156 40-40 40s-40-17.910156-40-40zm0 0" fill="#d9e9fd"/><path d="m160 232c-.023438 19.097656 7.566406 37.421875 21.089844 50.910156 28.117187 28.117188 73.703125 28.117188 101.824218 0 28.117188-28.117187 28.117188-73.707031 0-101.824218-20.59375-20.589844-51.5625-26.75-78.46875-15.605469-26.902343 11.144531-44.445312 37.398437-44.445312 66.519531zm112 0c0 22.089844-17.910156 40-40 40s-40-17.910156-40-40c0-22.09375 17.910156-40 40-40s40 17.90625 40 40zm0 0" fill="#808080"/><g fill="#b3d4fb"><path d="m160 232h-160c-.078125 61.542969 24.375 120.585938 67.953125 164.046875l113.136719-113.136719c-13.523438-13.488281-21.113282-31.8125-21.089844-50.910156zm0 0"/><path d="m282.914062 181.085938c13.523438 13.488281 21.109376 31.8125 21.085938 50.914062h160c.078125-61.546875-24.375-120.585938-67.953125-164.050781zm0 0"/></g></svg>