<svg height="472pt" viewBox="0 -52 472 472" width="472pt" xmlns="http://www.w3.org/2000/svg"><path d="m328 40c-79.527344 0-144 64.472656-144 144s64.472656 144 144 144 144-64.472656 144-144-64.472656-144-144-144zm0 168c-13.253906 0-24-10.746094-24-24s10.746094-24 24-24 24 10.746094 24 24-10.746094 24-24 24zm0 0" fill="#b3d4fb"/><path d="m328 136c-26.507812 0-48 21.492188-48 48s21.492188 48 48 48 48-21.492188 48-48-21.492188-48-48-48zm0 72c-13.253906 0-24-10.746094-24-24s10.746094-24 24-24 24 10.746094 24 24-10.746094 24-24 24zm0 0" fill="#808080"/><path d="m280 0h-264c-8.824219.0273438-15.9726562 7.175781-16 16v336c0 8.835938 7.164062 16 16 16h264c8.835938 0 16-7.164062 16-16v-336c0-8.835938-7.164062-16-16-16zm0 0" fill="#b59d80"/><path d="m48 32h200c8.835938 0 16 7.164062 16 16v272c0 8.835938-7.164062 16-16 16h-200c-8.835938 0-16-7.164062-16-16v-272c0-8.835938 7.164062-16 16-16zm0 0" fill="#8c7151"/></svg>