<svg height="464pt" viewBox="0 -120 464 464" width="464pt" xmlns="http://www.w3.org/2000/svg"><path d="m336 0v224h-272c-35.347656 0-64-28.652344-64-64v-96c0-35.347656 28.652344-64 64-64zm0 0" fill="#c8c7cb"/><path d="m96 48c-26.507812 0-48 21.492188-48 48v32c0 26.507812 21.492188 48 48 48h192v-128zm0 0" fill="#818085"/><path d="m336 32h128v160h-128zm0 0" fill="#d7d8d9"/><path d="m368 64h24v24h-24zm0 0" fill="#aacefa"/><path d="m368 144h24v24h-24zm0 0" fill="#aacefa"/><path d="m96 64h136v16h-136zm0 0" fill="#d7d8d9"/><path d="m336 104h8v16h-8zm0 0" fill="#818085"/></svg>