<svg height="464pt" viewBox="0 0 464 464" width="464pt" xmlns="http://www.w3.org/2000/svg"><path d="m464 88v376h-448c-8.824219-.027344-15.9726562-7.175781-16-16v-416l32-32h344zm0 0" fill="#b59d80"/><path d="m32 152h400v280h-400zm0 0" fill="#ffe8ca"/><path d="m96 96h144v-96h-160v80c0 8.835938 7.164062 16 16 16zm0 0" fill="#e3e3e5"/><path d="m336 96c8.835938 0 16-7.164062 16-16v-80h-64v96zm0 0" fill="#d1d3d4"/><path d="m240 0h48v96h-48zm0 0" fill="#808080"/><g fill="#a0815c"><path d="m80 208h232c4.417969 0 8-3.582031 8-8s-3.582031-8-8-8h-232c-4.417969 0-8 3.582031-8 8s3.582031 8 8 8zm0 0"/><path d="m80 256h152c4.417969 0 8-3.582031 8-8s-3.582031-8-8-8h-152c-4.417969 0-8 3.582031-8 8s3.582031 8 8 8zm0 0"/><path d="m256 248c0 4.417969 3.582031 8 8 8h136c4.417969 0 8-3.582031 8-8s-3.582031-8-8-8h-136c-4.417969 0-8 3.582031-8 8zm0 0"/><path d="m80 304h80c4.417969 0 8-3.582031 8-8s-3.582031-8-8-8h-80c-4.417969 0-8 3.582031-8 8s3.582031 8 8 8zm0 0"/><path d="m400 288h-192c-4.417969 0-8 3.582031-8 8s3.582031 8 8 8h192c4.417969 0 8-3.582031 8-8s-3.582031-8-8-8zm0 0"/><path d="m80 352h32c4.417969 0 8-3.582031 8-8s-3.582031-8-8-8h-32c-4.417969 0-8 3.582031-8 8s3.582031 8 8 8zm0 0"/><path d="m152 336c-4.417969 0-8 3.582031-8 8s3.582031 8 8 8h40c4.417969 0 8-3.582031 8-8s-3.582031-8-8-8zm0 0"/><path d="m400 336h-176c-4.417969 0-8 3.582031-8 8s3.582031 8 8 8h176c4.417969 0 8-3.582031 8-8s-3.582031-8-8-8zm0 0"/><path d="m336 384h-256c-4.417969 0-8 3.582031-8 8s3.582031 8 8 8h256c4.417969 0 8-3.582031 8-8s-3.582031-8-8-8zm0 0"/></g></svg>