<svg height="464pt" viewBox="0 -60 464.03561 464" width="464pt" xmlns="http://www.w3.org/2000/svg"><path d="m232.035156 112.019531c-4.171875.011719-7.652344-3.179687-8-7.335937-.167968-1.890625-3.535156-46.617188 24.6875-77.289063 16.753906-18.167969 40.730469-27.3749998 71.3125-27.3749998 4.417969 0 8 3.5781248 8 7.9999998 0 4.417969-3.582031 8-8 8-25.871094 0-45.871094 7.445313-59.429687 22.125-23.472657 25.425781-20.625 64.800781-20.59375 65.226563.179687 2.117187-.492188 4.222656-1.867188 5.84375-1.375 1.625-3.339843 2.632812-5.460937 2.804687-.214844 0-.441406 0-.648438 0zm0 0" fill="#2b2b2c"/><path d="m464.035156 240.019531c-.023437 46.179688-30.496094 86.8125-74.824218 99.765625-44.324219 12.957032-91.882813-4.871094-116.773438-43.765625h-80.800781c-26.863281 42.035157-79.789063 59.078125-126.132813 40.609375-46.34375-18.464844-73.046875-67.238281-63.636718-116.226562 9.410156-48.992188 52.28125-84.402344 102.167968-84.382813h256c2.671875-.03125 5.34375.101563 8 .398438 54.164063 4.125 96.007813 49.277343 96 103.601562zm0 0" fill="#c7d1dd"/><path d="m368.035156 136.019531h-8c2.671875-.03125 5.34375.101563 8 .398438zm0 0" fill="#aacefa"/><path d="m256.035156 104.019531h-48v32h48zm0 0" fill="#6c6b6f"/><path d="m120.035156 192.019531h-32v32h-32v32h32v32h32v-32h32v-32h-32zm0 0" fill="#72787f"/><path d="m328.035156 240.019531c0 8.835938-7.164062 16-16 16-8.835937 0-16-7.164062-16-16 0-8.839843 7.164063-16 16-16 8.835938 0 16 7.160157 16 16zm0 0" fill="#ff9811"/><path d="m376.035156 280.019531c0 8.835938-7.164062 16-16 16-8.835937 0-16-7.164062-16-16 0-8.839843 7.164063-16 16-16 8.835938 0 16 7.160157 16 16zm0 0" fill="#ffda44"/><path d="m376.035156 200.019531c0 8.835938-7.164062 16-16 16-8.835937 0-16-7.164062-16-16 0-8.839843 7.164063-16 16-16 8.835938 0 16 7.160157 16 16zm0 0" fill="#64c37d"/><path d="m424.035156 240.019531c0 8.835938-7.164062 16-16 16-8.835937 0-16-7.164062-16-16 0-8.839843 7.164063-16 16-16 8.835938 0 16 7.160157 16 16zm0 0" fill="#d80027"/><path d="m264.035156 240.019531h-64c-8.835937 0-16 7.160157-16 16 0 8.835938 7.164063 16 16 16h64c8.835938 0 16-7.164062 16-16 0-8.839843-7.164062-16-16-16zm0 0" fill="#97969b"/><path d="m152.035156 136.019531h160v32c0 8.835938-7.164062 16-16 16h-128c-8.835937 0-16-7.164062-16-16zm0 0" fill="#aab3be"/><g fill="#2b2b2c"><path d="m216.035156 248.019531h-16c-4.417968 0-8 3.578125-8 8 0 4.417969 3.582032 8 8 8h16c4.417969 0 8-3.582031 8-8 0-4.421875-3.582031-8-8-8zm0 0"/><path d="m264.035156 248.019531h-16c-4.417968 0-8 3.578125-8 8 0 4.417969 3.582032 8 8 8h16c4.417969 0 8-3.582031 8-8 0-4.421875-3.582031-8-8-8zm0 0"/></g></svg>