<svg height="464pt" viewBox="-56 0 464 464" width="464pt" xmlns="http://www.w3.org/2000/svg"><path d="m352 16v448h-352v-464h336c8.824219.0273438 15.972656 7.175781 16 16zm0 0" fill="#565659"/><path d="m304 176c0 70.691406-57.308594 128-128 128-2.960938 0-5.921875-.078125-8.878906-.320312 8.800781-15.441407 13.597656-28.078126 9.4375-32.238282-5.917969-5.921875-28.558594 6.078125-52.238282 21.679688-58.425781-25.785156-88.90625-90.6875-71.441406-152.113282 17.46875-61.425781 77.535156-100.578124 140.785156-91.765624s110.328126 62.898437 110.335938 126.757812zm0 0" fill="#e3e3e5"/><path d="m200 376h128v48h-128zm0 0" fill="#a0815c"/><path d="m56 40c0 8.835938-7.164062 16-16 16s-16-7.164062-16-16 7.164062-16 16-16 16 7.164062 16 16zm0 0" fill="#c8c7cb"/><path d="m328 40c0 8.835938-7.164062 16-16 16s-16-7.164062-16-16 7.164062-16 16-16 16 7.164062 16 16zm0 0" fill="#c8c7cb"/><path d="m216 176c0 22.089844-17.910156 40-40 40s-40-17.910156-40-40 17.910156-40 40-40 40 17.910156 40 40zm0 0" fill="#acabb1"/><path d="m168 352h-88v-56h-48v128h144v-72zm0 0" fill="#acabb1"/><path d="m176.558594 271.441406c-5.917969-5.921875-28.558594 6.078125-52.238282 21.679688-16 10.558594-32.320312 22.71875-44.320312 32.238281-7.921875 6.242187-13.921875 11.28125-16.558594 13.921875-3.535156 3.582031-6.191406 7.9375-7.761718 12.71875-4.589844 14.070312 1.070312 29.453125 13.683593 37.195312 12.609375 7.742188 28.886719 5.824219 39.355469-4.636718 9.320312-10.378906 18.078125-21.246094 26.242188-32.558594 11.652343-15.464844 22.390624-31.597656 32.160156-48.320312 8.800781-15.441407 13.597656-28.078126 9.4375-32.238282zm0 0" fill="#d80027"/><path d="m88 368c-3.234375 0-6.152344-1.949219-7.390625-4.9375s-.550781-6.429688 1.734375-8.71875l16-16c3.140625-3.03125 8.128906-2.988281 11.214844.097656 3.085937 3.085938 3.128906 8.074219.097656 11.214844l-16 16c-1.5 1.5-3.535156 2.34375-5.65625 2.34375zm0 0" fill="#414042"/></svg>