<svg height="464pt" viewBox="0 0 464 464" width="464pt" xmlns="http://www.w3.org/2000/svg"><path d="m416 96v320h-368v-368h320zm0 0" fill="#818085"/><path d="m88 88h288v288h-288zm0 0" fill="#616064"/><path d="m104 104h256v256h-256zm0 0" fill="#dfd5c9"/><g fill="#aacefa"><path d="m120 0h32v48h-32zm0 0"/><path d="m184 0h32v48h-32zm0 0"/><path d="m248 0h32v48h-32zm0 0"/><path d="m312 0h32v48h-32zm0 0"/><path d="m0 312h48v32h-48zm0 0"/><path d="m0 248h48v32h-48zm0 0"/><path d="m0 184h48v32h-48zm0 0"/><path d="m0 120h48v32h-48zm0 0"/><path d="m312 416h32v48h-32zm0 0"/><path d="m248 416h32v48h-32zm0 0"/><path d="m184 416h32v48h-32zm0 0"/><path d="m120 416h32v48h-32zm0 0"/><path d="m416 120h48v32h-48zm0 0"/><path d="m416 184h48v32h-48zm0 0"/><path d="m416 248h48v32h-48zm0 0"/><path d="m416 312h48v32h-48zm0 0"/></g><path d="m168 152c0 8.835938-7.164062 16-16 16s-16-7.164062-16-16 7.164062-16 16-16 16 7.164062 16 16zm0 0" fill="#d80027"/><path d="m136 272h192v32h-192zm0 0" fill="#c3bab0"/><path d="m136 224h192v32h-192zm0 0" fill="#c3bab0"/><path d="m136 328h192v16h-192zm0 0" fill="#58595b"/></svg>