<svg height="464pt" viewBox="0 0 464 464" width="464pt" xmlns="http://www.w3.org/2000/svg"><path d="m0 0h464v464h-464z" fill="#595765"/><path d="m32 32h96v32h-96zm0 0" fill="#aacefa"/><path d="m336 32h96v32h-96zm0 0" fill="#aacefa"/><path d="m152 104h-104v176h368v-176zm0 0" fill="#8c7151"/><path d="m48 280v136h32v-96c0-4.417969 3.582031-8 8-8s8 3.582031 8 8v96h24v-96c0-4.417969 3.582031-8 8-8s8 3.582031 8 8v96h24v-96c0-4.417969 3.582031-8 8-8s8 3.582031 8 8v96h24v-96c0-4.417969 3.582031-8 8-8s8 3.582031 8 8v96h32v-96c0-4.417969 3.582031-8 8-8s8 3.582031 8 8v96h24v-96c0-4.417969 3.582031-8 8-8s8 3.582031 8 8v96h24v-96c0-4.417969 3.582031-8 8-8s8 3.582031 8 8v96h24v-96c0-4.417969 3.582031-8 8-8s8 3.582031 8 8v96h32v-136zm0 0" fill="#a69178"/><g fill="#676668"><path d="m88 312c-4.417969 0-8 3.582031-8 8v96h16v-96c0-4.417969-3.582031-8-8-8zm0 0"/><path d="m296 312c-4.417969 0-8 3.582031-8 8v96h16v-96c0-4.417969-3.582031-8-8-8zm0 0"/><path d="m336 312c-4.417969 0-8 3.582031-8 8v96h16v-96c0-4.417969-3.582031-8-8-8zm0 0"/><path d="m376 312c-4.417969 0-8 3.582031-8 8v96h16v-96c0-4.417969-3.582031-8-8-8zm0 0"/><path d="m256 312c-4.417969 0-8 3.582031-8 8v96h16v-96c0-4.417969-3.582031-8-8-8zm0 0"/><path d="m208 312c-4.417969 0-8 3.582031-8 8v96h16v-96c0-4.417969-3.582031-8-8-8zm0 0"/><path d="m168 312c-4.417969 0-8 3.582031-8 8v96h16v-96c0-4.417969-3.582031-8-8-8zm0 0"/><path d="m128 312c-4.417969 0-8 3.582031-8 8v96h16v-96c0-4.417969-3.582031-8-8-8zm0 0"/></g><path d="m48 104h368v24h-368zm0 0" fill="#414042"/><path d="m312 208v-144h-24v-32h-112v32h-24v144zm0 0" fill="#463929"/><path d="m32 32h96v16h-96zm0 0" fill="#809bbc"/><path d="m336 32h96v16h-96zm0 0" fill="#809bbc"/></svg>