<svg height="464pt" viewBox="0 -48 464 464" width="464pt" xmlns="http://www.w3.org/2000/svg"><path d="m32 0h400v232h-400zm0 0" fill="#565659"/><path d="m56 24h352v184h-352zm0 0" fill="#95b4db"/><path d="m432 232h-400l-32 136h464zm0 0" fill="#595765"/><path d="m56 24v160l320-160zm0 0" fill="#aacefa"/><path d="m376 24-320 160v24h352v-184zm0 0" fill="#95b4db"/><g fill="#414042"><path d="m416 288h-368c-4.417969 0-8 3.582031-8 8s3.582031 8 8 8h368c4.417969 0 8-3.582031 8-8s-3.582031-8-8-8zm0 0"/><path d="m408 256h-352c-4.417969 0-8 3.582031-8 8s3.582031 8 8 8h352c4.417969 0 8-3.582031 8-8s-3.582031-8-8-8zm0 0"/></g></svg>