<svg height="486.99259pt" viewBox="0 0 486.99259 486.99259" width="486.99259pt" xmlns="http://www.w3.org/2000/svg"><path d="m288.046875 144.023438c0 79.542968-64.480469 144.023437-144.023437 144.023437-79.542969 0-144.023438-64.480469-144.023438-144.023437 0-79.542969 64.480469-144.023438 144.023438-144.023438 79.542968 0 144.023437 64.480469 144.023437 144.023438zm0 0" fill="#e3effd"/><path d="m256.027344 278.652344 22.628906-22.628906.003906.007812-22.625 22.625zm0 0" fill="#aacefa"/><path d="m256.027344 278.65625 22.628906-22.628906 33.933594 33.9375-22.628906 22.625zm0 0" fill="#a0815c"/><path d="m323.902344 278.648438-45.253906 45.253906 158.398437 158.402344c6.25 6.25 16.382813 6.25 22.632813 0l22.625-22.625c6.25-6.25 6.25-16.382813 0-22.632813zm0 0" fill="#64513a"/><path d="m120.023438 256.023438h48v-88h88v-48h-88v-88h-48v88h-88v48h88zm0 0" fill="#d80027"/><path d="m289.945312 244.742188-24-24.078126-.066406-.070312c-11.402344 18.363281-26.886718 33.851562-45.253906 45.253906l.070312.0625 24.082032 24 11.246094-11.246094 22.625-22.640624zm0 0" fill="#50412e"/></svg>