<svg height="472pt" viewBox="-100 0 472 472" width="472pt" xmlns="http://www.w3.org/2000/svg"><path d="m272.003906 176c.023438-11.675781-8.378906-21.664062-19.882812-23.644531-11.507813-1.976563-22.765625 4.632812-26.644532 15.644531h-25.472656c-4.417968 0-8 3.582031-8 8s3.582032 8 8 8h25.472656c2.421876 6.777344 7.753907 12.109375 14.527344 14.527344v17.472656c-.066406 49.085938-34.394531 91.460938-82.398437 101.710938-3.925781-8.378907-12.347657-13.726563-21.601563-13.726563-9.25 0-17.671875 5.347656-21.597656 13.726563-48.003906-10.25-82.332031-52.625-82.402344-101.710938v-17.472656c6.777344-2.417969 12.109375-7.75 14.53125-14.527344h25.46875c4.421875 0 8-3.582031 8-8s-3.578125-8-8-8h-25.46875c-3.703125-10.53125-14.191406-17.109375-25.28125-15.855469-11.09375 1.257813-19.847656 10.007813-21.101562 21.101563s5.320312 21.582031 15.851562 25.28125v17.472656c.085938 57.292969 40.605469 106.554688 96.800782 117.695312 1.929687 7.800782 7.636718 14.121094 15.199218 16.832032v105.472656h-72c-4.417968 0-8 3.582031-8 8s3.582032 8 8 8h160c4.421875 0 8-3.582031 8-8s-3.578125-8-8-8h-72v-105.472656c7.574219-2.695313 13.296875-9 15.242188-16.800782 56.191406-11.160156 96.695312-60.4375 96.757812-117.726562v-17.472656c9.558594-3.378906 15.960938-12.394532 16-22.527344zm0 0" fill="#565659"/><path d="m136.003906 272c35.347656 0 64-28.652344 64-64v-64h-128v64c0 35.347656 28.65625 64 64 64zm0 0" fill="#d80027"/><path d="m72.003906 64v144c0 35.347656 28.65625 64 64 64v-272c-35.34375 0-64 28.652344-64 64zm0 0" fill="#a2001d"/><path d="m136.003906 0v272c35.347656 0 64-28.652344 64-64v-144c0-35.347656-28.652344-64-64-64zm0 0" fill="#d80027"/><path d="m136.003906 272c35.347656 0 64-28.652344 64-64v-64h-64zm0 0" fill="#dc1c3f"/><path d="m136.003906 0v144h64v-80c0-35.347656-28.652344-64-64-64zm0 0" fill="#d80027"/><path d="m72.003906 64v144c0 35.347656 28.65625 64 64 64v-272c-35.34375 0-64 28.652344-64 64zm0 0" fill="#a2001d"/><path d="m72.003906 152h128c4.421875 0 8-3.582031 8-8s-3.578125-8-8-8h-128c-4.417968 0-8 3.582031-8 8s3.582032 8 8 8zm0 0" fill="#565659"/></svg>