<svg height="464pt" viewBox="0 -31 464 463" width="464pt" xmlns="http://www.w3.org/2000/svg"><path d="m448 .5h-432c-8.824219.027344-15.9726562 7.175781-16 16v288c.0273438 8.824219 7.175781 15.972656 16 16h432c8.824219-.027344 15.972656-7.175781 16-16v-288c-.027344-8.824219-7.175781-15.972656-16-16zm0 0" fill="#414042"/><path d="m256 136.5h144v264h-144zm0 0" fill="#818085"/><path d="m368 184.5h-88v168h96v-168zm0 0" fill="#95b4db"/><path d="m32 32.5v232l376-232zm0 0" fill="#aacefa"/><path d="m408 32.5-376 232v24h224v-152h144v152h32v-256zm0 0" fill="#95b4db"/><path d="m400 288.5h16v32h-16zm0 0" fill="#313032"/><path d="m296 168.5h-16c-4.417969 0-8-3.582031-8-8s3.582031-8 8-8h16c4.417969 0 8 3.582031 8 8s-3.582031 8-8 8zm0 0" fill="#565659"/><path d="m336 384.5h-16c-4.417969 0-8-3.582031-8-8s3.582031-8 8-8h16c4.417969 0 8 3.582031 8 8s-3.582031 8-8 8zm0 0" fill="#565659"/><path d="m280 184.5v152l80-152zm0 0" fill="#aacefa"/></svg>