<svg height="464pt" viewBox="0 -31 464 463" width="464pt" xmlns="http://www.w3.org/2000/svg"><path d="m32 .5h400c17.671875 0 32 14.328125 32 32v224c0 17.671875-14.328125 32-32 32h-400c-17.671875 0-32-14.328125-32-32v-224c0-17.671875 14.328125-32 32-32zm0 0" fill="#6c6b6f"/><path d="m200 288.5h64v64h-64zm0 0" fill="#595765"/><path d="m112 352.5c-8.835938 0-16 7.164062-16 16v32h272v-32c0-8.835938-7.164062-16-16-16zm0 0" fill="#595765"/><path d="m200 288.5h64v16h-64zm0 0" fill="#2b2b2c"/><path d="m32 32.5h400v224h-400zm0 0" fill="#95b4db"/><path d="m32 32.5v200l376-200zm0 0" fill="#aacefa"/></svg>