<svg height="472pt" viewBox="-100 0 472 472" width="472pt" xmlns="http://www.w3.org/2000/svg"><path d="m264.113281 248c-3.117187-10.96875-7.242187-21.628906-12.320312-31.839844-.960938-2-2-3.921875-3.039063-5.839844-4.109375-7.683593-8.84375-15.015624-14.160156-21.921874l-3.601562-4.558594c-3.574219-4.421875-7.449219-8.59375-11.601563-12.480469-1.117187-1.121094-2.316406-2.238281-3.519531-3.359375-4.347656-3.800781-8.886719-7.378906-13.597656-10.71875-1.519532-1.042969-3.039063-2.082031-4.640626-3.042969-1.601562-.957031-3.039062-1.917969-4.640624-2.796875-3.121094-1.839844-6.398438-3.441406-9.601563-4.960937-1.679687-.71875-3.277344-1.441407-4.878906-2.082031-.039063-.042969-.097657-.074219-.160157-.078126-1.277343-.558593-2.558593-1.039062-3.757812-1.441406-1.679688-.640625-3.359375-1.199218-4.960938-1.679687-2-.640625-4.082031-1.277344-6.160156-1.757813-1.761718-.480468-3.601562-.882812-5.359375-1.203125-.097656-.054687-.207031-.082031-.320312-.078125-1.039063-.238281-2.082031-.398437-3.121094-.558594-.878906-.160156-1.757813-.320312-2.640625-.402343-.417969-.09375-.847656-.144531-1.277344-.160157-.628906-.15625-1.273437-.238281-1.921875-.238281-1.371093-.253906-2.765625-.386719-4.160156-.402343-5.746094-.53125-11.53125-.53125-17.28125 0-1.394531.015624-2.785156.148437-4.15625.402343-.648437 0-1.292969.082031-1.921875.238281-.429688.015626-.859375.066407-1.28125.160157-.878906.082031-1.757812.242187-2.640625.402343-1.039063.160157-2.078125.320313-3.117187.558594-.113282-.003906-.222657.023438-.320313.078125-1.761719.320313-3.601563.722657-5.359375 1.203125-2.082031.480469-4.160156 1.117188-6.160156 1.757813-1.601563.480469-3.28125 1.039062-4.960938 1.679687-1.199218.402344-2.480468.882813-3.761718 1.441406-.058594.003907-.117188.035157-.160157.078126-1.597656.640624-3.199219 1.363281-4.878906 2.082031-3.199219 1.519531-6.480469 3.121093-9.597656 4.960937-1.601563.878906-3.121094 1.839844-4.640625 2.796875-1.519532.960938-3.121094 2-4.640625 3.042969-4.714844 3.339844-9.253907 6.917969-13.601563 10.71875-1.199218 1.121094-2.398437 2.238281-3.519531 3.359375-4.148437 3.886719-8.027344 8.058594-11.597656 12.480469l-3.601563 4.558594c-5.316406 6.90625-10.050781 14.238281-14.160156 21.921874-1.039062 1.917969-2.078125 3.839844-3.039062 5.839844-5.078126 10.210938-9.203126 20.871094-12.320313 31.839844-5.289063 18.195312-7.953125 37.050781-7.921875 56-.882812 47.207031 16.253906 92.976562 47.921875 128 22.542969 24.972656 54.441406 39.457031 88.078125 40 33.636719-.542969 65.539062-15.027344 88.082031-40 31.667969-35.023438 48.800781-80.792969 47.917969-128 .035156-18.949219-2.632812-37.804688-7.917969-56zm0 0" fill="#97969b"/><path d="m41.074219 183.839844c3.636719-4.367188 7.507812-8.535156 11.597656-12.480469-4.148437 3.886719-8.027344 8.058594-11.597656 12.480469zm0 0" fill="#aacefa"/><path d="m152.03125 243.679688v44.320312h-32v-44.320312c-4.859375 2.824218-10.378906 4.316406-16 4.320312h-96.078125c-5.289063 18.195312-7.953125 37.050781-7.921875 56-.882812 47.207031 16.253906 92.976562 47.921875 128h176.160156c31.667969-35.023438 48.800781-80.792969 47.917969-128 .035156-18.949219-2.632812-37.804688-7.917969-56h-96.082031c-5.621094-.003906-11.140625-1.496094-16-4.320312zm0 0" fill="#e3e3e5"/><path d="m219.390625 171.359375c4.09375 3.945313 7.964844 8.113281 11.601563 12.480469-3.574219-4.421875-7.449219-8.59375-11.601563-12.480469zm0 0" fill="#aacefa"/><path d="m148.832031 136.800781c-1.371093-.253906-2.765625-.386719-4.160156-.402343-2.871094-.292969-5.753906-.425782-8.640625-.398438v72h16v35.679688c4.859375 2.824218 10.378906 4.316406 16 4.320312h96.082031c-3.117187-10.96875-7.242187-21.628906-12.320312-31.839844-.960938-2-2-3.921875-3.039063-5.839844-4.109375-7.683593-8.84375-15.015624-14.160156-21.921874l-3.601562-4.558594c-3.636719-4.367188-7.507813-8.535156-11.601563-12.480469-1.117187-1.121094-2.316406-2.238281-3.519531-3.359375-4.347656-3.800781-8.886719-7.378906-13.597656-10.71875-1.519532-1.042969-3.039063-2.082031-4.640626-3.042969-1.601562-.957031-3.039062-1.917969-4.640624-2.796875-3.121094-1.839844-6.398438-3.441406-9.601563-4.960937-1.679687-.71875-3.277344-1.441407-4.878906-2.082031-.039063-.042969-.097657-.074219-.160157-.078126-1.277343-.558593-2.558593-1.039062-3.757812-1.441406-1.679688-.640625-3.359375-1.199218-4.960938-1.679687-2-.640625-4.082031-1.277344-6.160156-1.757813-1.761718-.480468-3.601562-.882812-5.359375-1.203125-.097656-.054687-.207031-.082031-.320312-.078125-1.039063-.238281-2.082031-.398437-3.121094-.558594-.878906-.160156-1.757813-.320312-2.640625-.402343-.417969-.09375-.847656-.144531-1.277344-.160157-.628906-.15625-1.273437-.238281-1.921875-.238281zm0 0" fill="#595765"/><path d="m120.03125 243.679688v-35.679688h16v-72c-2.882812-.027344-5.769531.105469-8.640625.398438-1.394531.015624-2.785156.148437-4.15625.402343-.648437 0-1.292969.082031-1.921875.238281-.429688.015626-.859375.066407-1.28125.160157-.878906.082031-1.757812.242187-2.640625.402343-1.039063.160157-2.078125.320313-3.117187.558594-.113282-.003906-.222657.023438-.320313.078125-1.761719.320313-3.601563.722657-5.359375 1.203125-2.082031.480469-4.160156 1.117188-6.160156 1.757813-1.601563.480469-3.28125 1.039062-4.960938 1.679687-1.199218.402344-2.480468.882813-3.761718 1.441406-.058594.003907-.117188.035157-.160157.078126-1.597656.640624-3.199219 1.363281-4.878906 2.082031-3.199219 1.519531-6.480469 3.121093-9.597656 4.960937-1.601563.878906-3.121094 1.839844-4.640625 2.796875-1.519532.960938-3.121094 2-4.640625 3.042969-4.714844 3.339844-9.253907 6.917969-13.601563 10.71875-1.199218 1.121094-2.398437 2.238281-3.519531 3.359375-4.089844 3.945313-7.960937 8.113281-11.597656 12.480469l-3.601563 4.558594c-5.316406 6.90625-10.050781 14.238281-14.160156 21.921874-1.039062 1.917969-2.078125 3.839844-3.039062 5.839844-5.078126 10.210938-9.203126 20.871094-12.320313 31.839844h96.078125c5.621094-.003906 11.140625-1.496094 16-4.320312zm0 0" fill="#595765"/><path d="m120.03125 243.679688v44.320312h32v-80h-32zm0 0" fill="#d80027"/><path d="m224.03125 0c-94.902344 0-96 110.878906-96 112h-8v25.199219c.421875-.09375.851562-.144531 1.28125-.160157.628906-.15625 1.273438-.238281 1.921875-.238281 1.371094-.253906 2.761719-.386719 4.15625-.402343 5.75-.53125 11.535156-.53125 17.28125 0 1.394531.015624 2.789063.148437 4.160156.402343.648438 0 1.292969.082031 1.921875.238281.429688.015626.859375.066407 1.277344.160157v-25.199219h-8c0-4 1.167969-96 80-96 4.417969 0 8-3.582031 8-8s-3.582031-8-8-8zm0 0" fill="#343435"/></svg>