<svg height="464pt" viewBox="0 -47 464 464" width="464pt" xmlns="http://www.w3.org/2000/svg"><path d="m452 50.050781h-440c-6.628906 0-12 5.371094-12 12v228h464v-228c0-6.628906-5.371094-12-12-12zm0 0" fill="#d2e8f8"/><path d="m0 358.050781c0 6.625 5.371094 12 12 12h440c6.628906 0 12-5.375 12-12v-20h-464zm0 0" fill="#50412e"/><path d="m271.601562 151.816406.027344-.027344 22.628906 22.628907-.03125.027343zm0 0" fill="#aacefa"/><path d="m0 290.050781h464v48h-464zm0 0" fill="#786145"/><path d="m441.359375 27.328125c6.253906-6.25 6.253906-16.386719 0-22.640625-6.25-6.25-16.386719-6.25-22.640625 0l-11.359375 11.363281 22.640625 22.636719zm0 0" fill="#97969b"/><path d="m271.609375 151.816406.023437-.023437 22.625 22.625-.027343.023437.007812.007813 124.402344-124.398438 11.359375-11.363281-22.640625-22.636719-135.757813 135.757813zm0 0" fill="#565659"/><path d="m294.230469 174.441406-22.621094-22.625-16.945313 16.945313 3.152344 9.457031c-1.183594.359375-2.265625.996094-3.152344 1.855469l-5.664062 5.65625c-3.125 3.125-3.121094 8.191406.003906 11.3125 3.125 3.125 8.191406 3.125 11.316406-.003907l5.65625-5.652343c.859376-.890625 1.496094-1.96875 1.855469-3.152344l9.457031 3.152344zm0 0" fill="#414143"/><g fill="#2b2b2c"><path d="m432 322.050781h-32c-4.417969 0-8-3.582031-8-8 0-4.421875 3.582031-8 8-8h32c4.417969 0 8 3.578125 8 8 0 4.417969-3.582031 8-8 8zm0 0"/><path d="m64 322.050781h-32c-4.417969 0-8-3.582031-8-8 0-4.421875 3.582031-8 8-8h32c4.417969 0 8 3.578125 8 8 0 4.417969-3.582031 8-8 8zm0 0"/></g></svg>