<svg height="464pt" viewBox="0 -31 464 463" width="464pt" xmlns="http://www.w3.org/2000/svg"><path d="m232 64.460938c-3.894531.003906-7.21875-2.808594-7.855469-6.648438-1.394531-12.28125 2.371094-24.59375 10.398438-33.992188 13.105469-15.480468 36.472656-23.320312 69.457031-23.320312 4.417969 0 8 3.582031 8 8s-3.582031 8-8 8c-27.464844 0-47.199219 6.023438-57.046875 17.433594-5.179687 5.835937-7.730469 13.550781-7.050781 21.328125.65625 4.347656-2.324219 8.414062-6.671875 9.09375-.40625.070312-.816407.105469-1.230469.105469zm0 0" fill="#414042"/><path d="m32 80.5h400c17.671875 0 32 14.328125 32 32v256c0 17.671875-14.328125 32-32 32h-400c-17.671875 0-32-14.328125-32-32v-256c0-17.671875 14.328125-32 32-32zm0 0" fill="#a0815c"/><path d="m32 128.5h32v32h-32zm0 0" fill="#64c37d"/><path d="m32 192.5h32v32h-32zm0 0" fill="#aacefa"/><path d="m32 256.5h32v32h-32zm0 0" fill="#ebfebe"/><path d="m32 320.5h32v32h-32zm0 0" fill="#ffddb0"/><path d="m256 56.5h-48v24h48zm0 0" fill="#3c3023"/><path d="m440 128.5v232c-.027344 8.824219-7.175781 15.972656-16 16h-328v-248zm0 0" fill="#d2e8f8"/><path d="m390.023438 197.101562 11.3125-11.3125c6.0625-6.277343 5.976562-16.257812-.195313-22.429687s-16.152344-6.257813-22.429687-.195313l-147.078126 147.078126 135.765626-135.765626zm0 0" fill="#6c6b6f"/><path d="m390.023438 197.101562-135.765626 135.765626zm0 0" fill="#aacefa"/><path d="m231.632812 310.230469 135.761719-135.765625 22.628907 22.625-135.761719 135.769531zm0 0" fill="#414042"/><path d="m254.257812 332.867188-22.625-22.625-16.96875 16.96875 3.152344 9.457031c-1.183594.359375-2.265625.996093-3.152344 1.855469l-5.664062 5.65625c-3.125 3.125-3.121094 8.191406.003906 11.316406s8.191406 3.121094 11.316406-.003906l5.65625-5.65625c.859376-.886719 1.496094-1.96875 1.855469-3.152344l9.457031 3.152344zm0 0" fill="#565659"/></svg>