<svg height="480pt" viewBox="0 -24 480 480" width="480pt" xmlns="http://www.w3.org/2000/svg"><path d="m480 144v208h-480v-208zm0 0" fill="#818085"/><path d="m64 96h32v48h-32zm0 0" fill="#595765"/><path d="m384 96h32v48h-32zm0 0" fill="#595765"/><path d="m384 296v24h32v-48h-352v48h32v-24zm0 0" fill="#414042"/><path d="m96 296v136h288v-136zm0 0" fill="#fff7d5"/><path d="m416 168h40v32h-40zm0 0" fill="#d80027"/><path d="m384 144v-80h-64v-64h-224v144zm0 0" fill="#fff7d5"/><path d="m384 64-64-64v64zm0 0" fill="#ffefac"/><path d="m120 192h240v48h-240zm0 0" fill="#717074"/><g fill="#a0815c"><path d="m360 408h-240c-4.417969 0-8-3.582031-8-8s3.582031-8 8-8h240c4.417969 0 8 3.582031 8 8s-3.582031 8-8 8zm0 0"/><path d="m360 384h-104c-4.417969 0-8-3.582031-8-8s3.582031-8 8-8h104c4.417969 0 8 3.582031 8 8s-3.582031 8-8 8zm0 0"/><path d="m232 384h-56c-4.417969 0-8-3.582031-8-8s3.582031-8 8-8h56c4.417969 0 8 3.582031 8 8s-3.582031 8-8 8zm0 0"/><path d="m152 384h-32c-4.417969 0-8-3.582031-8-8s3.582031-8 8-8h32c4.417969 0 8 3.582031 8 8s-3.582031 8-8 8zm0 0"/></g></svg>