<svg height="464pt" viewBox="0 0 464 464" width="464pt" xmlns="http://www.w3.org/2000/svg"><path d="m448 48c.027344 8.824219 7.175781 15.972656 16 16v400h-464v-400c8.835938 0 16-7.164062 16-16s-7.164062-16-16-16v-32h464v32c-8.824219.027344-15.972656 7.175781-16 16zm0 0" fill="#818085"/><path d="m96 80h272c8.835938 0 16 7.164062 16 16v272c0 8.835938-7.164062 16-16 16h-272c-8.835938 0-16-7.164062-16-16v-272c0-8.835938 7.164062-16 16-16zm0 0" fill="#aacefa"/><path d="m24 376v64h64zm0 0" fill="#d80027"/><path d="m112 112h240v240h-240zm0 0" fill="#dfd5c9"/><g fill="#363638"><path d="m152 328c-4.417969 0-8-3.582031-8-8v-48c0-4.417969 3.582031-8 8-8s8 3.582031 8 8v48c0 4.417969-3.582031 8-8 8zm0 0"/><path d="m184 328c-4.417969 0-8-3.582031-8-8v-48c0-4.417969 3.582031-8 8-8s8 3.582031 8 8v48c0 4.417969-3.582031 8-8 8zm0 0"/><path d="m216 328c-4.417969 0-8-3.582031-8-8v-48c0-4.417969 3.582031-8 8-8s8 3.582031 8 8v48c0 4.417969-3.582031 8-8 8zm0 0"/></g></svg>