<svg height="464pt" viewBox="0 -144 464 464" width="464pt" xmlns="http://www.w3.org/2000/svg"><path d="m456 40c.003906 5.710938 3.054688 10.984375 8 13.839844v90.160156h-464v-90.160156c4.933594-2.863282 7.972656-8.136719 7.972656-13.839844s-3.039062-10.976562-7.972656-13.839844v-26.160156h464v26.160156c-4.945312 2.855469-7.996094 8.128906-8 13.839844zm0 0" fill="#26492f"/><path d="m48 32h48v80h-48zm0 0" fill="#acabb1"/><path d="m0 144h464v32h-464zm0 0" fill="#aacefa"/><g fill="#50412e"><path d="m32 144v32h16v-32zm0 0"/><path d="m64 144v32h16v-32zm0 0"/><path d="m96 144v32h16v-32zm0 0"/><path d="m128 144v32h16v-32zm0 0"/><path d="m160 144v32h16v-32zm0 0"/><path d="m192 144v32h16v-32zm0 0"/><path d="m224 144v32h16v-32zm0 0"/><path d="m256 144v32h16v-32zm0 0"/><path d="m288 144v32h16v-32zm0 0"/><path d="m320 144v32h16v-32zm0 0"/><path d="m352 144v32h16v-32zm0 0"/><path d="m384 144v32h16v-32zm0 0"/><path d="m424 144h-8v32h16v-32zm0 0"/></g><path d="m128 32h48v80h-48zm0 0" fill="#acabb1"/><path d="m208 32h48v80h-48zm0 0" fill="#acabb1"/><path d="m288 32h48v80h-48zm0 0" fill="#acabb1"/><path d="m368 32h48v80h-48zm0 0" fill="#acabb1"/><path d="m48 32h8v80h-8zm0 0" fill="#786566"/></svg>