<svg height="446pt" viewBox="-58 0 446 446.60095" width="446pt" xmlns="http://www.w3.org/2000/svg"><path d="m322.742188 257 .117187-.109375zm0 0" fill="#aacefa"/><path d="m.300781 398.601562h16v48h-16zm0 0" fill="#54504b"/><path d="m56.300781 318.601562h32v-26.402343c-12.054687-.074219-23.578125-4.972657-32-13.597657zm0 0" fill="#54504b"/><path d="m32.300781 318.601562v80h80v-80zm0 0" fill="#6c6b6f"/><path d="m51.742188 215.480469c-12.074219 14.269531-14.78125 34.246093-6.941407 51.214843 7.84375 16.964844 24.808594 27.851563 43.5 27.90625 11.949219.042969 23.46875-4.445312 32.238281-12.5625-28.382812-15.75-52.113281-38.710937-68.796874-66.558593zm0 0" fill="#565659"/><path d="m.300781 398.601562v48h144v-48zm0 0" fill="#3c3b3e"/><path d="m32.300781 318.601562h16v80h-16zm0 0" fill="#54504b"/><path d="m254.902344 98.746094-22.746094-22.746094c-65.503906-61.320312-134.574219-91.582031-158.167969-67.992188-.023437.066407-.050781.132813-.085937.191407-55.042969 55.089843-61.96875 140.609375-22.160156 207.28125 16.683593 27.847656 40.414062 50.808593 68.796874 66.558593 65.429688 37.753907 147.957032 27.53125 202.203126-25.039062-.394532.386719-.890626.65625-1.304688 1.007812.453125-.390624.992188-.6875 1.421875-1.117187l-.117187.109375c.046874-.046875.101562-.078125.148437-.117188 23.59375-23.5625-6.671875-92.632812-67.988281-158.136718zm0 0" fill="#90806e"/><path d="m224.15625 76-110.871094 66.527344c10.039063 12.261718 20.6875 24.007812 31.902344 35.203125 11.195312 11.214843 22.941406 21.863281 35.199219 31.902343l66.53125-110.871093 34.046875-56.800781zm0 0" fill="#acabb1"/><path d="m268.300781 258.257812c-29.0625-11.839843-56.042969-28.253906-79.921875-48.617187-12.261718-10.042969-24.007812-20.695313-35.199218-31.917969-11.222657-11.191406-21.875-22.941406-31.917969-35.203125-21.042969-24.558593-37.800781-52.488281-49.5625-82.613281-7.949219-23.007812-7.847657-41.554688 2.167969-51.746094-55.007813 55.128906-61.933594 140.648438-22.125 207.320313 16.683593 27.847656 40.414062 50.808593 68.796874 66.558593 65.429688 37.753907 147.957032 27.53125 202.203126-25.039062-10.578126 10.402344-30.167969 10.160156-54.441407 1.257812zm0 0" fill="#c0ab92"/><path d="m67.742188 231.480469c-34.097657-55.671875-33.671876-125.867188 1.101562-181.121094-4.800781-18.558594-3.566406-33.460937 5.023438-42.199219-55.007813 55.128906-61.933594 140.648438-22.125 207.320313 7.792968 13.027343 17.171874 25.039062 27.917968 35.761719 2.566406 2.566406 5.222656 4.976562 7.894532 7.359374-7.421876-8.410156-14.058594-17.492187-19.8125-27.121093zm0 0" fill="#a89680"/></svg>