<svg height="432pt" viewBox="-48 0 432 432" width="432pt" xmlns="http://www.w3.org/2000/svg"><path d="m264 0h-200c-17.671875 0-32 14.328125-32 32v368h272c17.671875 0 32-14.328125 32-32v-296zm0 0" fill="#8c7151"/><path d="m304 104v296c0 17.671875-14.328125 32-32 32h-240c-17.671875 0-32-14.328125-32-32v-336c0-17.671875 14.328125-32 32-32h200zm0 0" fill="#c6b39c"/><path d="m32 336h64v64h-64zm0 0" fill="#b59d80"/><path d="m32 208h64v64h-64zm0 0" fill="#b59d80"/><path d="m96 272h-64v64h192v64h48v-128zm0 0" fill="#ded3c7"/><path d="m96 208h64v64h-64zm0 0" fill="#a0815c"/><path d="m96 336h64v64h-64zm0 0" fill="#a0815c"/><g fill="#b59d80"><path d="m160 208h112v64h-112zm0 0"/><path d="m160 336h64v64h-64zm0 0"/></g></svg>