<svg height="464pt" viewBox="-48 0 464 464" width="464pt" xmlns="http://www.w3.org/2000/svg"><path d="m16 144c-8.835938 0-16 7.164062-16 16v144c0 8.835938 7.164062 16 16 16h64v-176zm0 0" fill="#8c7151"/><path d="m336 0-247.152344 123.574219c-5.421875 2.710937-8.847656 8.253906-8.847656 14.3125v188.226562c0 6.058594 3.425781 11.601563 8.847656 14.3125l247.152344 123.574219zm0 0" fill="#a0815c"/><path d="m336 160.398438v143.203124c20.363281-18.230468 32-44.269531 32-71.601562s-11.636719-53.371094-32-71.601562zm0 0" fill="#786b5b"/><path d="m0 168h80v128h-80zm0 0" fill="#786145"/></svg>