<svg height="456pt" viewBox="-92 0 456 456" width="456pt" xmlns="http://www.w3.org/2000/svg"><path d="m56 456h-32c-4.417969 0-8-3.582031-8-8s3.582031-8 8-8h32c4.417969 0 8 3.582031 8 8s-3.582031 8-8 8zm0 0" fill="#2b2b2c"/><path d="m248 456h-32c-4.417969 0-8-3.582031-8-8s3.582031-8 8-8h32c4.417969 0 8 3.582031 8 8s-3.582031 8-8 8zm0 0" fill="#2b2b2c"/><path d="m0 0h272v448h-272zm0 0" fill="#aacefa"/><path d="m32 32h208v384h-208zm0 0" fill="#87c1ed"/><path d="m224 296c0 48.601562-39.398438 88-88 88s-88-39.398438-88-88 39.398438-88 88-88 88 39.398438 88 88zm0 0" fill="#ff9e85"/><path d="m192 104c0 30.929688-25.070312 56-56 56s-56-25.070312-56-56 25.070312-56 56-56 56 25.070312 56 56zm0 0" fill="#ffefac"/><path d="m0 432h272v16h-272zm0 0" fill="#404d5e"/><g fill="#58595b"><path d="m40 32c0 4.417969-3.582031 8-8 8s-8-3.582031-8-8 3.582031-8 8-8 8 3.582031 8 8zm0 0"/><path d="m248 32c0 4.417969-3.582031 8-8 8s-8-3.582031-8-8 3.582031-8 8-8 8 3.582031 8 8zm0 0"/><path d="m40 184c0 4.417969-3.582031 8-8 8s-8-3.582031-8-8 3.582031-8 8-8 8 3.582031 8 8zm0 0"/><path d="m248 184c0 4.417969-3.582031 8-8 8s-8-3.582031-8-8 3.582031-8 8-8 8 3.582031 8 8zm0 0"/><path d="m40 416c0 4.417969-3.582031 8-8 8s-8-3.582031-8-8 3.582031-8 8-8 8 3.582031 8 8zm0 0"/><path d="m248 416c0 4.417969-3.582031 8-8 8s-8-3.582031-8-8 3.582031-8 8-8 8 3.582031 8 8zm0 0"/></g><path d="m160 296c0 13.253906-10.746094 24-24 24s-24-10.746094-24-24 10.746094-24 24-24 24 10.746094 24 24zm0 0" fill="#d80027"/><path d="m136 119.273438c8.433594 0 15.273438-6.839844 15.273438-15.273438s-6.839844-15.273438-15.273438-15.273438-15.273438 6.839844-15.273438 15.273438 6.839844 15.273438 15.273438 15.273438zm0 0" fill="#ffda44"/></svg>