<svg height="464pt" viewBox="0 -32 464.00198 464" width="464pt" xmlns="http://www.w3.org/2000/svg"><path d="m464 64v192c0 19.121094-30.480469 36.320312-78.71875 48-50.3125 11.183594-101.742188 16.550781-153.28125 16-51.535156.550781-102.964844-4.816406-153.277344-16-48.242187-11.679688-78.722656-28.878906-78.722656-48v-192c0-35.359375 103.839844-64 232-64s232 28.640625 232 64zm0 0" fill="#a0815c"/><path d="m0 160h464v88h-464zm0 0" fill="#50412e"/><path d="m464 64v96c0 18.960938-30.078125 36.082031-77.757812 47.761719l22.878906-22.960938-33.921875-33.917969-24.71875 24.636719c-9.4375-5.78125-19.722657-10.046875-30.480469-12.636719v-34.882812h-48v34.882812c-10.757812 2.589844-21.042969 6.855469-30.480469 12.636719l-24.71875-24.636719-33.917969 33.917969 24.636719 24.71875c-2.734375 4.417969-5.113281 9.046875-7.117187 13.839844-40.964844-1.140625-81.71875-6.285156-121.679688-15.359375-48.242187-11.679688-78.722656-28.878906-78.722656-48v-96c-.0117188 1.128906.09375 2.253906.320312 3.359375 3.28125 17.761719 32.960938 33.679687 78.402344 44.640625 50.3125 11.183594 101.742188 16.550781 153.277344 16 51.539062.550781 102.96875-4.816406 153.28125-16 45.441406-10.960938 75.121094-26.878906 78.398438-44.640625.226562-1.105469.332031-2.230469.320312-3.359375zm0 0" fill="#64513a"/><path d="m194.882812 288h-34.882812v-48h34.882812c1.34375-5.699219 3.191407-11.265625 5.519532-16.640625-40.964844-1.140625-81.71875-6.285156-121.679688-15.359375-48.242187-11.679688-78.722656-28.878906-78.722656-48v96c0 32.960938 90.320312 60.082031 206.402344 63.601562l1.117187-1.121093c-5.78125-9.4375-10.046875-19.722657-12.636719-30.480469zm0 0" fill="#50412e"/><path d="m386.242188 207.761719-1.761719 1.757812c5.78125 9.4375 10.046875 19.722657 12.640625 30.480469h34.878906v48h-34.878906c-1.144532 4.832031-2.667969 9.570312-4.558594 14.160156 44-11.597656 71.4375-28 71.4375-46.160156v-96c0 18.960938-30.078125 36.082031-77.757812 47.761719zm0 0" fill="#50412e"/><path d="m392.5625 302.160156c-2.191406 5.675782-4.898438 11.136719-8.082031 16.320313l24.640625 24.71875-33.921875 33.921875-24.71875-24.640625c-9.4375 5.78125-19.722657 10.046875-30.480469 12.640625v34.878906h-48v-34.878906c-10.757812-2.59375-21.042969-6.859375-30.480469-12.640625l-24.71875 24.640625-33.917969-33.921875 23.519532-23.597657 1.117187-1.121093c-5.78125-9.4375-10.046875-19.722657-12.636719-30.480469h-34.882812v-48h34.882812c2.609376-10.75 6.875-21.035156 12.636719-30.480469l-24.636719-24.71875 33.917969-33.917969 24.71875 24.636719c9.4375-5.78125 19.722657-10.046875 30.480469-12.636719v-34.882812h48v34.882812c10.757812 2.589844 21.042969 6.855469 30.480469 12.636719l24.71875-24.636719 33.921875 33.917969-22.878906 22.960938-1.761719 1.757812c5.78125 9.4375 10.046875 19.722657 12.640625 30.480469h34.878906v48h-34.878906c-1.144532 4.832031-2.667969 9.570312-4.558594 14.160156zm0 0" fill="#ff5023"/><path d="m368 264c0 39.765625-32.234375 72-72 72-39.761719 0-72-32.234375-72-72 0-39.761719 32.238281-72 72-72 39.765625 0 72 32.238281 72 72zm0 0" fill="#ffddb0"/><path d="m328 264c0 17.675781-14.324219 32-32 32-17.671875 0-32-14.324219-32-32 0-17.671875 14.328125-32 32-32 17.675781 0 32 14.328125 32 32zm0 0" fill="#d80027"/></svg>