<svg height="480pt" viewBox="0 -12 480.10389 480" width="480pt" xmlns="http://www.w3.org/2000/svg"><path d="m480.105469 424.050781c.019531 16.097657-11.945313 29.695313-27.914063 31.726563-15.96875 2.035156-30.957031-8.136719-34.96875-23.726563h-146.238281c-3.59375 14.121094-16.308594 24.007813-30.878906 24.007813-14.574219 0-27.289063-9.886719-30.882813-24.007813h-146.238281c-4.027344 15.605469-19.03125 25.777344-35.015625 23.746094-15.988281-2.03125-27.96875-15.628906-27.96875-31.746094 0-16.113281 11.980469-29.714843 27.96875-31.742187 15.984375-2.03125 30.988281 8.140625 35.015625 23.742187h146.238281c2.953125-11.1875 11.691406-19.929687 22.882813-22.878906v-57.121094c0-4.417969 3.582031-8 8-8s8 3.582031 8 8v57.121094c11.1875 2.949219 19.925781 11.691406 22.878906 22.878906h146.238281c4.011719-15.589843 19-25.757812 34.96875-23.726562s27.933594 15.628906 27.914063 31.726562zm0 0" fill="#414042"/><path d="m40.105469.0507812h400c17.671875 0 32 14.3281248 32 31.9999998v48c0 17.675781-14.328125 32-32 32h-400c-17.675781 0-32-14.324219-32-32v-48c0-17.671875 14.324219-31.9999998 32-31.9999998zm0 0" fill="#a0815c"/><path d="m48.105469 24.050781h384c8.835937 0 16 7.164063 16 16v32c0 8.835938-7.164063 16-16 16h-384c-8.839844 0-16-7.164062-16-16v-32c0-8.835937 7.160156-16 16-16zm0 0" fill="#8c7151"/><path d="m40.105469 112.050781h400c17.671875 0 32 14.328125 32 32v48c0 17.675781-14.328125 32-32 32h-400c-17.675781 0-32-14.324219-32-32v-48c0-17.671875 14.324219-32 32-32zm0 0" fill="#a0815c"/><path d="m48.105469 136.050781h384c8.835937 0 16 7.164063 16 16v32c0 8.835938-7.164063 16-16 16h-384c-8.839844 0-16-7.164062-16-16v-32c0-8.835937 7.160156-16 16-16zm0 0" fill="#8c7151"/><path d="m40.105469 224.050781h400c17.671875 0 32 14.328125 32 32v48c0 17.675781-14.328125 32-32 32h-400c-17.675781 0-32-14.324219-32-32v-48c0-17.671875 14.324219-32 32-32zm0 0" fill="#a0815c"/><path d="m48.105469 248.050781h384c8.835937 0 16 7.164063 16 16v32c0 8.835938-7.164063 16-16 16h-384c-8.839844 0-16-7.164062-16-16v-32c0-8.835937 7.160156-16 16-16zm0 0" fill="#8c7151"/><path d="m56.105469 40.050781h40v32h-40zm0 0" fill="#d80027"/><path d="m56.105469 152.050781h40v32h-40zm0 0" fill="#d80027"/><path d="m56.105469 264.050781h40v32h-40zm0 0" fill="#d80027"/><g fill="#58595b"><path d="m424.105469 48.050781h-80c-4.417969 0-8-3.582031-8-8s3.582031-8 8-8h80c4.417969 0 8 3.582031 8 8s-3.582031 8-8 8zm0 0"/><path d="m424.105469 80.050781h-80c-4.417969 0-8-3.582031-8-8s3.582031-8 8-8h80c4.417969 0 8 3.582031 8 8s-3.582031 8-8 8zm0 0"/><path d="m424.105469 160.050781h-80c-4.417969 0-8-3.582031-8-8s3.582031-8 8-8h80c4.417969 0 8 3.582031 8 8s-3.582031 8-8 8zm0 0"/><path d="m424.105469 192.050781h-80c-4.417969 0-8-3.582031-8-8s3.582031-8 8-8h80c4.417969 0 8 3.582031 8 8s-3.582031 8-8 8zm0 0"/><path d="m424.105469 272.050781h-80c-4.417969 0-8-3.582031-8-8s3.582031-8 8-8h80c4.417969 0 8 3.582031 8 8s-3.582031 8-8 8zm0 0"/><path d="m424.105469 304.050781h-80c-4.417969 0-8-3.582031-8-8s3.582031-8 8-8h80c4.417969 0 8 3.582031 8 8s-3.582031 8-8 8zm0 0"/></g><path d="m256.105469 424.050781c0 8.835938-7.164063 16-16 16-8.839844 0-16-7.164062-16-16 0-8.835937 7.160156-16 16-16 8.835937 0 16 7.164063 16 16zm0 0" fill="#ffda44"/><path d="m464.105469 424.050781c0 8.835938-7.164063 16-16 16-8.839844 0-16-7.164062-16-16 0-8.835937 7.160156-16 16-16 8.835937 0 16 7.164063 16 16zm0 0" fill="#ffda44"/><path d="m48.105469 424.050781c0 8.835938-7.164063 16-16 16-8.839844 0-16-7.164062-16-16 0-8.835937 7.160156-16 16-16 8.835937 0 16 7.164063 16 16zm0 0" fill="#ffda44"/></svg>