<svg height="464pt" viewBox="0 -152 464 464" width="464pt" xmlns="http://www.w3.org/2000/svg"><path d="m16 0h432c8.835938 0 16 7.164062 16 16v128c0 8.835938-7.164062 16-16 16h-432c-8.835938 0-16-7.164062-16-16v-128c0-8.835938 7.164062-16 16-16zm0 0" fill="#aacefa"/><path d="m48 24h368c8.835938 0 16 7.164062 16 16v88c0 8.835938-7.164062 16-16 16h-368c-8.835938 0-16-7.164062-16-16v-88c0-8.835938 7.164062-16 16-16zm0 0" fill="#4b7493"/><path d="m80 96h80v32h-80zm0 0" fill="#fff"/><path d="m304 96h80v32h-80zm0 0" fill="#fff"/><path d="m80 96h80v16h-80zm0 0" fill="#414042"/><path d="m304 96h80v16h-80zm0 0" fill="#414042"/><path d="m32 24h400v24h-400zm0 0" fill="#49301a"/><g fill="#414042"><path d="m128 80h-48c-4.417969 0-8-3.582031-8-8s3.582031-8 8-8h48c4.417969 0 8 3.582031 8 8s-3.582031 8-8 8zm0 0"/><path d="m384 80h-48c-4.417969 0-8-3.582031-8-8s3.582031-8 8-8h48c4.417969 0 8 3.582031 8 8s-3.582031 8-8 8zm0 0"/><path d="m304 80h-48c-4.417969 0-8-3.582031-8-8s3.582031-8 8-8h48c4.417969 0 8 3.582031 8 8s-3.582031 8-8 8zm0 0"/><path d="m216 80h-48c-4.417969 0-8-3.582031-8-8s3.582031-8 8-8h48c4.417969 0 8 3.582031 8 8s-3.582031 8-8 8zm0 0"/><path d="m16 24h432v16h-432zm0 0"/><path d="m16 24h16v56h-16zm0 0"/><path d="m432 24h16v56h-16zm0 0"/></g></svg>