<svg height="472pt" viewBox="-92 0 472 472.00007" width="472pt" xmlns="http://www.w3.org/2000/svg"><path d="m96 279.761719v48.238281h96v-48.238281c-31.058594 10.984375-64.941406 10.984375-96 0zm0 0" fill="#818085"/><path d="m96 264h96v40h-96zm0 0" fill="#616064"/><path d="m128 328h32v88h-32zm0 0" fill="#acabb1"/><path d="m160 416h-104v48h176v-48zm0 0" fill="#818085"/><path d="m88 448h-8c-4.417969 0-8-3.582031-8-8s3.582031-8 8-8h8c4.417969 0 8 3.582031 8 8s-3.582031 8-8 8zm0 0" fill="#363638"/><path d="m24 456h240v16h-240zm0 0" fill="#414042"/><path d="m288 144c0 79.527344-64.472656 144-144 144s-144-64.472656-144-144 64.472656-144 144-144 144 64.472656 144 144zm0 0" fill="#dfd5c9"/><path d="m184 56 11.574219-46.320312c-33.171875-12.90625-69.976563-12.90625-103.148438 0l11.574219 46.320312zm0 0" fill="#414042"/><path d="m208 144c0 35.347656-28.652344 64-64 64s-64-28.652344-64-64 28.652344-64 64-64 64 28.652344 64 64zm0 0" fill="#ffefac"/><path d="m120 279.761719c-52.789062-18.609375-89.984375-66.152344-95.34375-121.867188-5.359375-55.714843 22.09375-109.476562 70.367188-137.804687l-2.597657-10.402344c-64.769531 24.863281-102.585937 92.390625-89.945312 160.605469 12.640625 68.214843 72.144531 117.703125 141.519531 117.707031 4.039062 0 8.039062-.183594 12-.511719-12.285156-1.003906-24.386719-3.601562-36-7.726562zm0 0" fill="#c6bdb3"/><path d="m32 152h-8c-4.417969 0-8-3.582031-8-8s3.582031-8 8-8h8c4.417969 0 8 3.582031 8 8s-3.582031 8-8 8zm0 0" fill="#363638"/><path d="m176 144c0 17.671875-14.328125 32-32 32s-32-14.328125-32-32 14.328125-32 32-32 32 14.328125 32 32zm0 0" fill="#aacefa"/></svg>